# xmcd CD database file generated by Grip 3.0.7
# 
# Track frame offsets:
#       183
#       16728
#       32035
#       44100
#       52623
#       70080
#       78080
#       94158
#       103583
#       116998
#       130500
#       195678
# 
# Disc length: 2775 seconds
# 
# Revision: 2
# Processed by: cddbd v1.4PL0 Copyright (c) Steve Scherf et al.
# Submitted via: Grip 3.0.7
# 
DISCID=940ad50c
DTITLE=Willie Nelson - Willie and Family Live
DYEAR=1900
DGENRE=Country
TTITLE0=Whiskey River
TTITLE1=Stay a little longer
TTITLE2=Funny how time slips away
TTITLE3=Crazy
TTITLE4=Night life
TTITLE5=If you've got the money I've got the time
TTITLE6=Mamas don't let your babies grow up to be cowboys
TTITLE7=I can get off on you
TTITLE8=If you could touch her at all
TTITLE9=Good hearted woman
TTITLE10=Red headed stranger medley
TTITLE11=Under the double eagle
EXTD=
EXTT0=
EXTT1=
EXTT2=
EXTT3=
EXTT4=
EXTT5=
EXTT6=
EXTT7=
EXTT8=
EXTT9=
EXTT10=Time of the preacher
EXTT11=
PLAYORDER=
